<?xml version="1.0" encoding="UTF-8" standalone="no"?>
<svg viewBox="0 0 400 60" version="1.1" xmlns="http://www.w3.org/2000/svg"
 xmlns:dc="http://purl.org/dc/elements/1.1/"
 xmlns:cc="http://creativecommons.org/ns#"
 xmlns:rdf="http://www.w3.org/1999/02/22-rdf-syntax-ns#"
 xmlns:svg="http://www.w3.org/2000/svg">
<title>Peter Answers Logo</title>
<desc>Brand image of PeterAnswers.com</desc>
<metadata>
 <rdf:RDF>
  <cc:Work rdf:about="">
   <dc:format>image/svg+xml</dc:format>
   <dc:type rdf:resource="http://purl.org/dc/dcmitype/StillImage" />
   <dc:title>Peter Answers Logo</dc:title>
   <dc:description>Brand image of PeterAnswers.com</dc:description>
   <dc:language>en</dc:language>
  </cc:Work>
 </rdf:RDF>
</metadata>

<g id="tarot">
 <title>Virtual Tarot</title>
 <circle cx="30" cy="30" r="30" style="fill:#000000;stroke-width:0.7" />
 <circle cx="30" cy="30" r="26.5" style="stroke:#ffff00;stroke-width:2.1" />
 <circle cx="30" cy="30" r="13.5" style="stroke:#ffff00;stroke-width:11.2" />
 <circle cx="30" cy="30" r="5" style="stroke:#a40000;stroke-width:5" />
 <g id="petals" style="fill:#000000;stroke:#ffff00;stroke-width:4.2">
  <circle cx="30" cy="13" r="5" />
  <circle cx="30" cy="47" r="5" />
  <circle cx="13" cy="30" r="5" />
  <circle cx="47" cy="30" r="5" />
  <circle cx="18" cy="18" r="5" />
  <circle cx="42" cy="42" r="5" />
  <circle cx="18" cy="42" r="5" />
  <circle cx="42" cy="18" r="5" />
 </g>
</g>

<g id="text" style="fill:#ffffff">
 <path d="m 92.520002,15.879999 q 5.96,0 8.999998,2.08 3.08,2.08 3.08,6.12 0,2.32 -1.24,4.44 -1.2,2.12 -4.199998,3.52 -2.96,1.4 -7.88,1.4 -0.92,0 -1.44,-0.04 v 5.8 q 0,2.12 -0.12,3.16 l 3.68,-0.2 v 1.8 h -9.8 v -1.32 q 1.4,-0.04 2,-0.64 0.6,-0.6 0.68,-1.4 0.08,-0.84 0.08,-2.88 v -17.28 q 0,-1.68 0.12,-2.88 l -2.88,0.16 v -1.76 q 5.6,-0.08 8.92,-0.08 z m -0.08,1.56 q -1.36,0 -1.92,0.56 -0.52,0.56 -0.6,1.36 -0.08,0.76 -0.08,2.84 v 9.56 q 1,0.12 2.6,0.12 2.28,0 4.16,-0.88 1.92,-0.92 3,-2.6 1.119998,-1.72 1.119998,-4 0,-3.6 -2.199998,-5.28 -2.2,-1.68 -6.08,-1.68 z" />
 <path d="m 116.98813,23.319999 q 2.28,0 4.12,1 1.84,1 2.92,3 1.08,1.96 1.08,4.84 l -14.08,0.24 q -0.04,4.8 1.56,7.48 1.64,2.68 5.04,2.68 1.84,0 3.76,-0.96 1.96,-0.96 3,-2.36 l 0.96,0.8 q -1.52,2.32 -3.96,3.44 -2.4,1.12 -4.72,1.12 -2.76,0 -5,-1.28 -2.2,-1.32 -3.48,-3.72 -1.28,-2.44 -1.28,-5.6 0,-2.8 1.28,-5.24 1.28,-2.48 3.56,-3.96 2.32,-1.48 5.24,-1.48 z m 0.04,1.56 q -4.96,0 -5.88,5.84 h 10.2 q 0,-2.4 -1.08,-4.12 -1.08,-1.72 -3.24,-1.72 z" />
 <path d="m 134.07438,23.959999 h 6.72 v 1.56 l -6.72,0.08 q -0.04,6.12 -0.08,8.48 0,2.36 0,2.64 0,2.84 0.68,4.24 0.68,1.36 2.36,1.36 1.04,0 2.04,-0.64 1.04,-0.64 1.8,-1.76 l 1.08,0.88 q -1.56,2.32 -3.08,3.08 -1.52,0.72 -2.96,0.72 -5.48,0 -5.44,-7.36 l 0.08,-11.6 -3.08,0.04 v -1.72 q 1.92,-0.04 3.24,-1.72 1.36,-1.72 2,-3.88 h 1.36 z" />
 <path d="m 153.86313,23.319999 q 2.28,0 4.12,1 1.84,1 2.92,3 1.08,1.96 1.08,4.84 l -14.08,0.24 q -0.04,4.8 1.56,7.48 1.64,2.68 5.04,2.68 1.84,0 3.76,-0.96 1.96,-0.96 3,-2.36 l 0.96,0.8 q -1.52,2.32 -3.96,3.44 -2.4,1.12 -4.72,1.12 -2.76,0 -5,-1.28 -2.2,-1.32 -3.48,-3.72 -1.28,-2.44 -1.28,-5.6 0,-2.8 1.28,-5.24 1.28,-2.48 3.56,-3.96 2.32,-1.48 5.24,-1.48 z m 0.04,1.56 q -4.96,0 -5.88,5.84 h 10.2 q 0,-2.4 -1.08,-4.12 -1.08,-1.72 -3.24,-1.72 z" />
 <path d="m 178.06188,23.319999 q 1.2,0 2,0.64 0.8,0.64 0.8,1.88 0,0.64 -0.52,1.28 -0.48,0.64 -1.4,0.64 -0.88,0 -1.44,-0.64 -0.56,-0.68 -0.44,-1.6 -1.52,-0.04 -3.08,1.16 -1.52,1.2 -2.6,3.2 l 0.04,9.84 q 0,1.8 -0.16,2.72 l 2.52,-0.12 v 1.64 h -8.2 v -1.2 q 1.16,0 1.64,-0.56 0.52,-0.6 0.6,-1.48 0.12,-0.92 0.12,-2.84 v -9.12 q 0,-1.68 0.16,-2.6 l -2.84,0.12 v -1.64 h 1.24 q 1.52,0 2.2,-0.24 0.68,-0.28 1.28,-0.84 h 1.16 q 0.16,1.56 0.2,3.96 1,-1.64 2.84,-2.92 1.88,-1.28 3.88,-1.28 z" />
 <path d="m 213.4725,37.959999 q 0.44,1.08 0.76,2.36 0.32,1.24 0.28,2.04 l 2.72,-0.16 v 1.76 h -9.16 v -1.32 q 2.36,-0.04 2.36,-1.92 0,-0.76 -0.4,-1.88 l -1.4,-3.76 -10.4,0.24 q -0.6,1.64 -1.4,4.28 -0.4,1.32 -1,2.76 l 3.12,-0.16 v 1.76 h -7.48 v -1.32 q 1,0 1.6,-0.44 0.6,-0.48 0.96,-1.2 0.4,-0.76 0.92,-2.24 l 0.4,-1.12 8.24,-22.44 h 0.96 z m -10.12,-16.92 -1.68,4.52 -2.16,6.08 -0.68,1.96 h 9.24 l -2.84,-7.64 -1.8,-4.92 z" />
 <path d="m 230.83063,23.319999 q 3.48,0 5.08,2.2 1.6,2.16 1.6,6.76 v 7.44 q 0,1.8 -0.16,2.72 l 2.52,-0.12 v 1.64 h -8.16 v -1.2 q 1.16,0 1.64,-0.56 0.52,-0.6 0.6,-1.48 0.12,-0.92 0.12,-2.84 v -5.6 q -0.04,-3.44 -1.12,-5.16 -1.08,-1.76 -3.4,-1.76 -1.44,0 -2.88,0.72 -1.4,0.72 -2.32,1.88 0.04,0.44 0.04,1.56 l -0.04,10.2 q 0,1.8 -0.16,2.72 l 2.52,-0.12 v 1.64 h -8.16 v -1.2 q 1.16,0 1.64,-0.56 0.52,-0.6 0.6,-1.44 0.08,-0.88 0.12,-2.88 l 0.04,-9.12 q 0,-1.68 0.16,-2.6 l -2.84,0.16 v -1.68 q 2.36,0 3.24,-0.24 0.88,-0.28 1.48,-0.84 h 1.16 q 0.08,0.76 0.16,2.44 1.36,-1.2 3.08,-1.92 1.76,-0.76 3.44,-0.76 z" />
 <path d="m 250.0075,23.319999 q 1.24,0 2.52,0.4 1.32,0.4 2.44,1.32 l -0.08,-1.52 h 1.68 v 7 h -1.28 q -0.12,-2.32 -1.44,-4 -1.28,-1.72 -3.64,-1.72 -1.8,0 -2.88,0.92 -1.04,0.88 -1.04,2.12 0,1.16 0.68,1.96 0.72,0.8 1.76,1.36 1.04,0.56 2.8,1.24 2.08,0.84 3.36,1.56 1.28,0.72 2.16,1.92 0.92,1.16 0.92,2.84 0,1.92 -1,3.24 -0.96,1.32 -2.56,2 -1.56,0.64 -3.36,0.64 -1.88,0 -3.44,-0.52 -1.56,-0.48 -2.68,-1.24 l 0.16,1.4 h -1.68 l -0.24,-6.88 h 1.24 q 0.08,1.64 0.88,2.92 0.84,1.28 2.16,2.04 1.36,0.72 2.88,0.72 1.72,0 3.04,-0.8 1.36,-0.84 1.36,-2.36 0,-1.12 -0.68,-1.88 -0.64,-0.76 -1.64,-1.24 -0.96,-0.52 -2.72,-1.2 -2.12,-0.8 -3.4,-1.48 -1.28,-0.72 -2.2,-1.92 -0.92,-1.2 -0.92,-3.04 0,-1.32 0.64,-2.64 0.64,-1.32 2.16,-2.24 1.52,-0.92 4.04,-0.92 z" />
 <path d="m 291.60313,25.159999 q -1.32,0.08 -2.08,0.48 -0.76,0.36 -1.16,1 -0.4,0.6 -0.8,1.68 l -5.76,15.76 h -1.6 l -5.24,-15.12 -5.2,15.12 h -1.52 l -5.24,-15.36 q -0.76,-2.16 -1.04,-3.24 l -2.12,0.12 v -1.64 h 8.48 v 1.2 q -2.04,0.04 -2.04,1.84 0,0.92 0.52,2.48 l 3.12,9.48 1.2,-3.56 q 2.48,-7.28 3.84,-11.44 h 1.64 l 5.32,15.28 3.84,-11.08 q 0.68,-2.04 1.2,-2.68 l -2.32,0.12 v -1.64 h 6.96 z" />
 <path d="m 302.92563,23.319999 q 2.28,0 4.12,1 1.84,1 2.92,3 1.08,1.96 1.08,4.84 l -14.08,0.24 q -0.04,4.8 1.56,7.48 1.64,2.68 5.04,2.68 1.84,0 3.76,-0.96 1.96,-0.96 3,-2.36 l 0.96,0.8 q -1.52,2.32 -3.96,3.44 -2.4,1.12 -4.72,1.12 -2.76,0 -5,-1.28 -2.2,-1.32 -3.48,-3.72 -1.28,-2.44 -1.28,-5.6 0,-2.8 1.28,-5.24 1.28,-2.48 3.56,-3.96 2.32,-1.48 5.24,-1.48 z m 0.04,1.56 q -4.96,0 -5.88,5.84 h 10.2 q 0,-2.4 -1.08,-4.12 -1.08,-1.72 -3.24,-1.72 z" />
 <path d="m 327.12438,23.319999 q 1.2,0 2,0.64 0.8,0.64 0.8,1.88 0,0.64 -0.52,1.28 -0.48,0.64 -1.4,0.64 -0.88,0 -1.44,-0.64 -0.56,-0.68 -0.44,-1.6 -1.52,-0.04 -3.08,1.16 -1.52,1.2 -2.6,3.2 l 0.04,9.84 q 0,1.8 -0.16,2.72 l 2.52,-0.12 v 1.64 h -8.2 v -1.2 q 1.16,0 1.64,-0.56 0.52,-0.6 0.6,-1.48 0.12,-0.92 0.12,-2.84 v -9.12 q 0,-1.68 0.16,-2.6 l -2.84,0.12 v -1.64 h 1.24 q 1.52,0 2.2,-0.24 0.68,-0.28 1.28,-0.84 h 1.16 q 0.16,1.56 0.2,3.96 1,-1.64 2.84,-2.92 1.88,-1.28 3.88,-1.28 z" />
 <path d="m 339.14813,23.319999 q 1.24,0 2.52,0.4 1.32,0.4 2.44,1.32 l -0.08,-1.52 h 1.68 v 7 h -1.28 q -0.12,-2.32 -1.44,-4 -1.28,-1.72 -3.64,-1.72 -1.8,0 -2.88,0.92 -1.04,0.88 -1.04,2.12 0,1.16 0.68,1.96 0.72,0.8 1.76,1.36 1.04,0.56 2.8,1.24 2.08,0.84 3.36,1.56 1.28,0.72 2.16,1.92 0.92,1.16 0.92,2.84 0,1.92 -1,3.24 -0.96,1.32 -2.56,2 -1.56,0.64 -3.36,0.64 -1.88,0 -3.44,-0.52 -1.56,-0.48 -2.68,-1.24 l 0.16,1.4 h -1.68 l -0.24,-6.88 h 1.24 q 0.08,1.64 0.88,2.92 0.84,1.28 2.16,2.04 1.36,0.72 2.88,0.72 1.72,0 3.04,-0.8 1.36,-0.84 1.36,-2.36 0,-1.12 -0.68,-1.88 -0.64,-0.76 -1.64,-1.24 -0.96,-0.52 -2.72,-1.2 -2.12,-0.8 -3.4,-1.48 -1.28,-0.72 -2.2,-1.92 -0.92,-1.2 -0.92,-3.04 0,-1.32 0.64,-2.64 0.64,-1.32 2.16,-2.24 1.52,-0.92 4.04,-0.92 z" />
</g>

</svg>